<?xml version="1.0" encoding="UTF-8"?>
<svg width="16px" height="17px" viewBox="0 0 16 17" version="1.1" xmlns="http://www.w3.org/2000/svg" xmlns:xlink="http://www.w3.org/1999/xlink">
    <!-- Generator: Sketch 42 (36781) - http://www.bohemiancoding.com/sketch -->
    <title>app反馈</title>
    <desc>Created with Sketch.</desc>
    <defs></defs>
    <g id="陪同版-1.2" stroke="none" stroke-width="1" fill="none" fill-rule="evenodd">
        <g id="app反馈" fill-rule="nonzero">
            <g id="Group">
                <path d="M8.07528244,13.0300533 C8.155995,13.0300533 8.23811708,13.0250853 8.32079374,13.0152649 C9.1136624,12.9201105 9.7869295,12.3659135 10.0354216,11.6022058 C10.0541844,11.5450854 10.0271031,11.4838751 9.97240895,11.458781 C9.91833869,11.4335944 9.85289982,11.4553611 9.82230623,11.5066124 C9.81941785,11.5114879 9.50440085,12.0203029 8.27802277,12.1859335 C8.09443808,12.2105655 7.91579827,12.2234823 7.74647058,12.2234823 C6.88726189,12.2229277 6.50437977,11.8990838 6.50086752,11.896103 C6.45763442,11.8576531 6.39164098,11.8566595 6.34732185,11.8941158 C6.30256369,11.9315722 6.292258,11.9966645 6.32278227,12.046483 C6.69681444,12.6528555 7.3680019,13.0300533 8.07528244,13.0300533 L8.07528244,13.0300533 Z" id="Shape" fill="#FFFFFF"></path>
                <path d="M14.6694273,5.42957785 C14.6586132,5.42957785 14.6487697,5.43156505 14.6384871,5.43156505 C13.9199073,2.32063063 11.1742475,0 7.88231632,0 C4.49985218,0 1.69117973,2.44878176 1.06865548,5.68846808 C0.463369016,5.79739423 0.00266270968,6.32940856 0.00266270968,6.97279839 L0.00266270968,9.54785961 C0.00266270968,10.269582 0.581422403,10.8548347 1.29602782,10.8548347 C1.6991285,10.8548347 2.05492926,10.6644797 2.29161373,10.3721306 C2.86351065,11.8847344 4.02777726,13.1043422 5.50121481,13.7478244 C5.50472706,13.7401529 5.53261715,13.6858978 5.56619153,13.6426647 C5.5893909,13.612695 5.61538623,13.5881554 5.63768442,13.5881554 C5.66079137,13.5881554 5.68200355,13.5965432 5.7001425,13.6093445 C5.35913018,13.3554454 4.12734508,12.050365 3.86052918,10.2291448 C3.74346939,9.42754174 4.34388029,8.64063468 5.04314269,8.51047324 C6.16572437,8.30144781 7.28243687,8.06333073 8.40501855,7.85825656 C9.11863037,7.72809513 9.60630248,7.33664035 9.90452073,6.68486271 C9.97439613,6.5324955 10.0753042,6.22443369 10.1216105,5.78015644 C10.1338803,5.71409368 10.188043,5.66337394 10.2574562,5.66337394 C10.3037625,5.66337394 10.3431137,5.68701234 10.3692014,5.72104887 L10.4001647,5.70182389 C10.8426165,6.344197 11.7200566,7.7665451 11.8460588,9.26632456 C11.9907545,10.9810217 11.9100419,12.1554323 10.5975674,13.3569011 C10.5960192,13.3584261 10.594032,13.3603209 10.5921372,13.3618691 C10.5739059,13.3815331 10.5630687,13.4071587 10.5630687,13.4353261 C10.5630687,13.472251 10.5827558,13.5038382 10.6112698,13.5230631 C10.622107,13.5274997 10.6329441,13.5334382 10.6437813,13.5378747 C10.6526081,13.5398619 10.661019,13.5427503 10.669869,13.5427503 C10.6787883,13.5427503 10.6866447,13.5398619 10.694501,13.5378747 C10.7131945,13.5280311 10.7308714,13.5166625 10.7491027,13.506819 C12.076412,12.7755996 13.0946426,11.5544668 13.5651694,10.08572 C13.75564,10.3686876 14.0538582,10.5723292 14.4002775,10.6433599 C13.8446248,13.1704974 11.590704,14.7521678 8.79827568,14.992249 C8.63093518,14.5771327 8.21898453,14.2823343 7.73519439,14.2823343 C7.10335805,14.2823343 6.59103082,14.7827615 6.59103082,15.399509 C6.59103082,16.0162796 7.10326561,16.516129 7.73519439,16.516129 C8.24463324,16.516129 8.6712799,16.1888422 8.81939542,15.739158 C12.0517568,15.4764089 14.6429005,13.5551125 15.1838341,10.5698798 C15.6616858,10.3701434 15.997268,9.90132655 15.997268,9.35406163 L15.997268,6.74849926 C15.997268,6.02026073 15.4027262,5.42957785 14.6694273,5.42957785 L14.6694273,5.42957785 Z M13.4769933,6.17803497 C12.6339595,3.89432923 10.4493594,2.2629326 7.87942795,2.2629326 C5.32024119,2.2629326 3.14349752,3.88051127 2.29260732,6.14942856 C2.2502754,6.09762279 2.20061856,6.05330366 2.15188602,6.00842998 C2.63359653,3.24354518 5.01317298,1.14134452 7.88231632,1.14134452 C10.7377341,1.14134452 13.1098933,3.22286447 13.6074089,5.96854739 C13.5582373,6.03461015 13.5129246,6.10356127 13.4769933,6.17803497 L13.4769933,6.17803497 Z" id="Shape" fill="#FFFFFF"></path>
                <path id="Shape" fill="#000000"></path>
            </g>
        </g>
    </g>
</svg>