<?xml version="1.0" encoding="UTF-8"?>
<svg width="15px" height="12px" viewBox="0 0 15 12" version="1.1" xmlns="http://www.w3.org/2000/svg" xmlns:xlink="http://www.w3.org/1999/xlink">
    <!-- Generator: Sketch 42 (36781) - http://www.bohemiancoding.com/sketch -->
    <title>卡片管理</title>
    <desc>Created with Sketch.</desc>
    <defs></defs>
    <g id="陪同版-1.2" stroke="none" stroke-width="1" fill="none" fill-rule="evenodd">
        <g id="侧边栏-copy" transform="translate(-31.000000, -235.000000)" fill-rule="nonzero" fill="#FFFFFF">
            <g id="客户版" transform="translate(0.000000, 66.000000)">
                <g id="Group-4" transform="translate(30.000000, 118.000000)">
                    <g id="卡片管理" transform="translate(1.000000, 51.000000)">
                        <path d="M14.9967462,4.55354374 L0.0032537961,4.55354374 L0.0032537961,10.9175631 C0.0032537961,11.5375332 0.494873753,11.9920879 1.06845813,11.9920879 L13.8905597,11.9920879 C14.5051262,11.9920879 14.9967462,11.5361829 14.9967462,10.9575666 L14.9967462,4.55354374 L14.9967462,4.55354374 Z M4.74219696,9.92583033 L1.86194707,9.92583033 L1.86194707,8.68622769 L4.74211367,8.68622769 L4.74211367,9.92583033 L4.74219696,9.92583033 Z M0.0032537961,3.27250286 L14.9967462,3.27250286 L14.9967462,1.08226813 C14.9967462,0.462382418 14.5051262,0.00791208791 13.9315419,0.00791208791 L1.10944035,0.00791208791 C0.494873753,0.00791208791 0.0032537961,0.503736264 0.0032537961,1.08226813 L0.0032537961,3.27250286 Z" id="Shape"></path>
                    </g>
                </g>
            </g>
        </g>
    </g>
</svg>