<?xml version="1.0" encoding="UTF-8"?>
<svg width="16px" height="15px" viewBox="0 0 16 15" version="1.1" xmlns="http://www.w3.org/2000/svg" xmlns:xlink="http://www.w3.org/1999/xlink">
    <!-- Generator: Sketch 42 (36781) - http://www.bohemiancoding.com/sketch -->
    <title>客户管理</title>
    <desc>Created with Sketch.</desc>
    <defs></defs>
    <g id="陪同版-1.2" stroke="none" stroke-width="1" fill="none" fill-rule="evenodd">
        <g id="侧边栏-copy" transform="translate(-30.000000, -135.000000)" fill="#FFFFFF">
            <g id="客户版" transform="translate(0.000000, 66.000000)">
                <g id="Group-3" transform="translate(0.000000, 50.000000)">
                    <g id="Group-6" transform="translate(30.000000, 18.000000)">
                        <path d="M14.5301197,12.8490115 C13.5301655,12.0706148 10.6478025,10.7776015 10.6478025,10.7776015 L8.77630318,14.2184666 L8.49889528,13.3987742 L9.01102032,12.3641519 L7.98602352,11.3294568 L6.9606661,12.3641519 L7.47357247,13.3987742 L7.1429432,14.237814 L5.3235552,10.7776379 C5.3235552,10.7776379 2.44160654,12.0710701 1.44149294,12.849048 C0.441469489,13.6270804 0,15.9894787 0,15.9894787 L16,15.9894787 C15.9999818,15.9894423 15.7069018,13.7651123 14.5301197,12.8490115 L14.5301197,12.8490115 L14.5301197,12.8490115 L14.5301197,12.8490115 L14.5301197,12.8490115 Z M8.08126723,10.4818998 C10.4301598,10.4782418 11.995985,7.35380912 11.995985,5.67192303 C11.995985,3.99023727 11.9893191,1 8.08126723,1 C4.17354226,1 4.1665531,3.99058331 4.1665531,5.67237834 C4.1665531,7.35413695 5.73260959,10.4856662 8.08126723,10.4818998 L8.08126723,10.4818998 L8.08126723,10.4818998 L8.08126723,10.4818998 L8.08126723,10.4818998 Z" id="客户管理"></path>
                    </g>
                </g>
            </g>
        </g>
    </g>
</svg>