<?xml version="1.0" encoding="UTF-8"?>
<svg width="16px" height="12px" viewBox="0 0 16 12" version="1.1" xmlns="http://www.w3.org/2000/svg" xmlns:xlink="http://www.w3.org/1999/xlink">
    <!-- Generator: Sketch 42 (36781) - http://www.bohemiancoding.com/sketch -->
    <title>轮播管理</title>
    <desc>Created with Sketch.</desc>
    <defs></defs>
    <g id="陪同版-1.2" stroke="none" stroke-width="1" fill="none" fill-rule="evenodd">
        <g id="轮播管理" fill-rule="nonzero" fill="#FFFFFF">
            <g id="Group">
                <path d="M1.59968756,2.4104667 L0.793445033,2.4104667 C0.363928914,2.4104667 0,2.76719703 0,3.20791096 L0,8.01177271 C0,8.44688772 0.355130643,8.80921696 0.793445033,8.80921696 L1.59968756,8.80921696 L1.59968756,2.4104667 Z M14.397188,2.4104667 L15.2034306,2.4104667 C15.6425448,2.4104667 15.9968756,2.77279594 15.9968756,3.20791096 L15.9968756,8.01177271 C15.9968756,8.45328647 15.6329467,8.80921696 15.2034306,8.80921696 L14.397188,8.80921696 L14.397188,2.4104667 Z" id="Shape"></path>
                <path d="M12.7975005,0.0109353673 L3.19937513,0.0109353673 C2.75786136,0.0109353673 2.39953135,0.369265378 2.39953135,0.810779149 L2.39953135,10.4089045 C2.39953135,10.8512181 2.75786136,11.2087483 3.19937513,11.2087483 L12.7975005,11.2087483 C13.2398141,11.2087483 13.5973443,10.8512181 13.5973443,10.4089045 L13.5973443,0.810779149 C13.5973443,0.369265378 13.2398141,0.0109353673 12.7975005,0.0109353673 Z M5.19898458,2.4104667 C5.86205507,2.4104667 6.39875024,2.94716188 6.39875024,3.61023238 C6.39875024,4.27330288 5.86205507,4.80999805 5.19898458,4.80999805 C4.53591408,4.80999805 3.9992189,4.27330288 3.9992189,3.61023238 C3.9992189,2.94716188 4.53591408,2.4104667 5.19898458,2.4104667 Z M3.19937513,9.60906072 C3.19937513,9.60906072 3.85444718,6.32810154 5.16059208,6.32810154 C6.46673698,6.32810154 6.31076744,7.44068423 7.29217576,7.44068423 C8.27438392,7.44068425 8.6799047,4.01015426 9.99964695,4.01015426 C11.3193892,4.01015426 12.7975005,9.60906072 12.7975005,9.60906072 L3.19937513,9.60906072 Z" id="Shape"></path>
            </g>
        </g>
    </g>
</svg>