<?xml version="1.0" encoding="UTF-8"?>
<svg width="13px" height="16px" viewBox="0 0 13 16" version="1.1" xmlns="http://www.w3.org/2000/svg" xmlns:xlink="http://www.w3.org/1999/xlink">
    <!-- Generator: Sketch 42 (36781) - http://www.bohemiancoding.com/sketch -->
    <title>订单管理</title>
    <desc>Created with Sketch.</desc>
    <defs></defs>
    <g id="陪同版-1.2" stroke="none" stroke-width="1" fill="none" fill-rule="evenodd">
        <g id="订单管理" fill-rule="nonzero" fill="#FFFFFF">
            <path d="M12.4213867,14.4748478 L12.4213867,15.1983473 C12.36539,15.3417382 12.3718718,15.5029937 12.2778061,15.6373733 C12.1728636,15.7874041 12.0697549,15.9332929 11.8882951,15.9980164 L0.692959527,15.9980164 C0.443898853,15.9638682 0.25513509,15.8403655 0.118352508,15.6277928 C0.040254267,15.5062504 0.0695015842,15.3595396 0.00752889278,15.2364163 L0.00752889278,14.3986782 C0.0616917637,14.0734481 0.0559687702,13.7434435 0.0595733042,13.4167272 C0.0687743545,12.5735508 0.156895737,11.7356547 0.203944385,10.895229 C0.243973689,10.1816261 0.299970451,9.46837099 0.354417873,8.75555855 C0.41563172,7.95434015 0.463534074,7.1522048 0.531008438,6.35139744 C0.55759979,6.03625365 0.557441681,5.71810607 0.617833453,5.40685138 C0.72546358,4.85181635 1.15772312,4.50426335 1.72006207,4.49272252 C1.93706136,4.48826428 2.14897003,4.53075984 2.3645781,4.5332261 C2.48678446,4.5345857 2.54524747,4.49275414 2.55859058,4.36024007 C2.67513719,3.2030581 3.10761807,2.16580595 3.78112846,1.22682477 C4.12782773,0.743469374 4.58041812,0.3842807 5.13131109,0.149227116 C5.38217402,0.0421977418 5.6515023,0.0582916761 5.90985887,0.00466632823 L5.98602838,0.00466632823 C6.12562503,0.0349570591 6.26531655,0.0349570591 6.40491319,0.00466632823 L6.51915163,0.00466632823 C7.74921476,0.110683904 8.46499937,0.911143457 9.03337751,1.89113411 C9.46079939,2.62813488 9.70410544,3.4344439 9.83058032,4.27493276 C9.8553694,4.43998249 9.92856674,4.50394717 10.0937113,4.49724399 C10.30894,4.48854885 10.5249274,4.49250118 10.7404406,4.49639028 C11.1653646,4.50416849 11.4998275,4.74674733 11.6619683,5.14327771 C11.7650769,5.39543701 11.7875578,5.66154017 11.8047268,5.92451307 C11.8418472,6.49273311 11.8862715,7.06041563 11.9338577,7.62762388 C11.9814122,8.19473726 12.0218526,8.76254626 12.0686483,9.32962803 C12.100931,9.72027732 12.1307158,10.1116539 12.160469,10.5027142 C12.203597,11.0701122 12.2449859,11.6377314 12.2957655,12.2046867 C12.3318741,12.6076357 12.3532484,13.0123237 12.3666547,13.4172963 C12.3781956,13.7699084 12.3716505,14.1240064 12.4213867,14.4748478 Z M5.98596513,0.00469797812 C6.12556179,0.138485035 6.2652533,0.137576814 6.40484994,0.00469797812 L5.98596513,0.00469797812 Z M8.70805248,4.57629082 C8.84698514,4.57856737 8.88650855,4.54103594 8.84859771,4.40083853 C8.77435695,4.12613507 8.72673915,3.84396961 8.64715484,3.57097357 C8.41377705,2.77111477 8.09313161,2.01605969 7.44969063,1.44818747 C7.02533577,1.07360047 6.54726069,0.843479422 5.95820392,0.945354941 C5.20042964,1.07641455 4.68523419,1.54158916 4.29885343,2.16814575 C3.88651368,2.83675524 3.68298396,3.578815 3.57035809,4.35135522 C3.54797204,4.50489574 3.58366957,4.5391388 3.72706048,4.53831673 C4.98810995,4.53107604 6.24903295,4.54381838 7.50979785,4.57398265 C7.90920548,4.57401427 8.30870803,4.56977737 8.70805248,4.57629082 Z M4.38621591,6.37956973 C4.38463498,5.86883253 3.9614184,5.4487778 3.45017528,5.4504536 C2.93965941,5.45209777 2.51922526,5.87553568 2.52090106,6.38646262 C2.52257686,6.89669392 2.94626771,7.31715968 3.45709978,7.31554713 C3.96780537,7.3139662 4.3878601,6.8907496 4.38621591,6.37956973 Z M7.96627727,6.38232056 C7.96592947,6.89293129 8.38769159,7.3151677 8.89836557,7.31557875 C9.40954544,7.31589493 9.83130755,6.89476518 9.83162375,6.38368018 C9.83193994,5.87287974 9.41046239,5.45073819 8.89966193,5.45042199 C8.3890512,5.45013742 7.96662509,5.87189954 7.96627727,6.38232056 Z" id="Shape"></path>
        </g>
    </g>
</svg>