<?xml version="1.0" encoding="UTF-8"?>
<svg width="16px" height="16px" viewBox="0 0 16 16" version="1.1" xmlns="http://www.w3.org/2000/svg" xmlns:xlink="http://www.w3.org/1999/xlink">
    <!-- Generator: Sketch 42 (36781) - http://www.bohemiancoding.com/sketch -->
    <title>翻译 (1)</title>
    <desc>Created with Sketch.</desc>
    <defs></defs>
    <g id="陪同版-1.2" stroke="none" stroke-width="1" fill="none" fill-rule="evenodd">
        <g id="翻译-(1)" fill-rule="nonzero" fill="#FFFFFF">
            <g id="Group">
                <path d="M7.95558966,5.06272754 C8.34641469,5.46569945 8.75843904,5.79791458 9.19143181,6.05951149 C9.69049347,5.779879 10.1189831,5.44766386 10.4768776,5.06272754 L7.95558966,5.06272754 Z" id="Shape"></path>
                <path d="M8.0042465,0.00123858956 C3.59139223,0.00123858956 0.0140638646,3.57856695 0.0140638646,7.99142122 C0.0140638646,12.4042755 3.59139223,15.9816039 8.0042465,15.9816039 C12.4171008,15.9816039 15.9944522,12.4042755 15.9944522,7.99142122 C15.9944522,3.57856695 12.4170777,0.00123858956 8.0042465,0.00123858956 Z M4.68558224,3.70961943 C5.10654357,4.16064776 5.56352988,4.67786049 6.05672596,5.26118833 C5.71393426,5.51377898 5.37114257,5.77537589 5.02837396,6.04597904 C4.63145239,5.5108 4.21349315,4.9695706 3.77449623,4.42224467 L4.68558224,3.70961943 Z M4.70364091,12.5047991 L4.05415179,11.620778 C4.2165183,11.4644156 4.29771308,11.2118943 4.29771308,10.8630291 L4.29771308,7.85011548 L3.53095797,7.85011548 L3.53095797,6.67743255 L5.50649027,6.67743255 L5.50649027,10.3127704 C5.78312068,10.0902699 6.02361063,9.8707483 6.22814486,9.65425192 C6.23414903,10.1173348 6.27324538,10.595428 6.34541084,11.0885317 C5.65373093,11.6117486 5.10654357,12.0837685 4.70364091,12.5047991 Z M12.2629554,11.1155967 L9.88149522,11.1155967 L9.88149522,12.5950001 L8.61858816,12.5950001 L8.61858816,11.1155967 L6.43558883,11.1155967 L6.43558883,10.1052803 L8.61858816,10.1052803 L8.61858816,9.45579114 L6.63402652,9.45579114 L6.63402652,8.44547473 L8.61858816,8.44547473 L8.61858816,7.85011548 L9.88149522,7.85011548 L9.88149522,8.44547473 L12.0644946,8.44547473 L12.0644946,9.45579114 L9.88149522,9.45579114 L9.88149522,10.1052803 L12.2629554,10.1052803 L12.2629554,11.1155967 Z M11.9923522,8.08464745 C10.7745688,7.91627678 9.82436328,7.67576372 9.14180504,7.36299286 C8.36895339,7.71479082 7.50906444,7.97040663 6.56188414,8.12974797 C6.41755322,7.78695628 6.22202525,7.43220243 5.97553113,7.06530169 C6.69718572,6.9631154 7.352679,6.81271104 7.9420341,6.61427335 C7.55111671,6.2985466 7.17225381,5.90769846 6.80542235,5.44159043 L7.50451514,5.06272756 L6.48969559,5.06272756 L6.48969559,4.0614405 L12.0825302,4.0614405 L12.0825302,5.04469197 C11.6134431,5.65210575 11.0677106,6.17529954 10.4452864,6.61429646 C11.0435785,6.79472165 11.7187008,6.90903174 12.4704224,6.95708816 C12.2779889,7.39005779 12.1186245,7.76598788 11.9923522,8.08464745 Z" id="Shape"></path>
            </g>
        </g>
    </g>
</svg>