<?xml version="1.0" encoding="UTF-8"?>
<svg width="16px" height="16px" viewBox="0 0 16 16" version="1.1" xmlns="http://www.w3.org/2000/svg" xmlns:xlink="http://www.w3.org/1999/xlink">
    <!-- Generator: Sketch 43 (38999) - http://www.bohemiancoding.com/sketch -->
    <title>系统管理</title>
    <desc>Created with Sketch.</desc>
    <defs></defs>
    <g id="陪同版-1.2" stroke="none" stroke-width="1" fill="none" fill-rule="evenodd">
        <g id="系统管理" fill-rule="nonzero" fill="#FFFFFF">
            <path d="M15.9794701,7.48131959 C15.9620648,7.28209184 15.793663,7.06426345 15.6052841,6.99721427 L14.1046644,6.4631571 C13.9162855,6.39610789 13.7084366,6.1866652 13.6428183,5.99779729 L13.4055742,5.42317011 C13.3190007,5.2428871 13.3184393,4.94764968 13.4043064,4.76705878 L14.085937,3.33310795 C14.1718042,3.15253515 14.1328461,2.88290756 13.9993635,2.73401198 L13.265988,2.0006365 C13.1170924,1.86715389 12.8474648,1.82819582 12.6668921,1.91406297 L11.2329231,2.59572979 C11.0523141,2.68156073 10.7570586,2.68096304 10.5768118,2.59442575 L10.0021303,2.35741717 C9.81326235,2.291672 9.60389209,2.08373257 9.5368429,1.89535366 L9.00278573,0.394770212 C8.93573653,0.20639131 8.71790816,0.0379533097 8.51868041,0.0205480354 C8.51868041,0.0205480354 8.29797228,0.00124106195 8.00001811,0.00124106195 C7.70208205,0.00124106195 7.48135581,0.0205480354 7.48135581,0.0205480354 C7.28216427,0.037953292 7.06433589,0.20639131 6.99725048,0.394770212 L6.46321142,1.89535366 C6.396126,2.08373257 6.18679196,2.29174444 5.99794216,2.35756205 L5.42423867,2.59444386 C5.24395566,2.68098115 4.94870012,2.68159694 4.76809112,2.59578412 L3.33318037,1.91402674 C3.15257136,1.82819581 2.88296188,1.86719011 2.73404818,2.00067271 L2.00063648,2.73404819 C1.86715388,2.88294377 1.82823202,3.15257138 1.91409919,3.33314416 L2.59572979,4.76709499 C2.68159696,4.947704 2.68099927,5.24294143 2.59446198,5.42320632 L2.3574534,5.99792405 C2.29170823,6.18675573 2.0837688,6.39614411 1.89538989,6.46319331 L0.394770212,6.99725048 C0.20639131,7.06429968 0.0379895221,7.28212805 0.0205842655,7.48135581 C0.0205842655,7.48135581 0.00125916814,7.70206393 0.00125916814,8.00001811 C0.00125916814,8.29795416 0.0205842655,8.51866228 0.0205842655,8.51866228 C0.0379895221,8.71789004 0.20639131,8.93571842 0.394806442,9.0027314 L1.89636793,9.53689724 C2.08478304,9.60394644 2.29259572,9.81331669 2.35821409,10.0021846 L2.59545812,10.5768118 C2.68203165,10.7570948 2.6826112,11.0523322 2.59676216,11.2329593 L1.91509535,12.6668921 C1.82922818,12.8475011 1.86813193,13.1171468 2.00150586,13.2661148 L2.73508057,13.9993997 C2.88397614,14.1328461 3.15356752,14.1718042 3.33417653,14.0859733 L4.76810924,13.4043064 C4.94875448,13.3184393 5.24397379,13.319037 5.4242568,13.4056105 L5.99893832,13.6425828 C6.18777,13.708328 6.39712216,13.9162674 6.46413513,14.1046825 L6.99830097,15.606244 C7.06535018,15.7946592 7.28317855,15.9627893 7.48244253,15.9799228 C7.48244253,15.9799228 7.70210019,15.9987952 8.00003625,15.9987952 C8.29800853,15.9987952 8.51869855,15.9794882 8.51869855,15.9794882 C8.7179263,15.9620467 8.93571846,15.7936449 9.00276766,15.605266 L9.5369335,14.1036683 C9.60394648,13.9152894 9.81331674,13.7074405 10.0022209,13.6418221 L10.5768481,13.4045781 C10.7570948,13.3180046 11.0523685,13.317425 11.2329594,13.4032741 L12.6669283,14.0849409 C12.8475011,14.1708081 13.117183,14.1319043 13.2661511,13.9985304 L13.9993998,13.2649919 C14.1328824,13.1160963 14.1718404,12.8464687 14.0859733,12.6658597 L13.4043427,11.231927 C13.3184755,11.051318 13.319037,10.7560624 13.4056105,10.5758157 L13.6426191,10.0011341 C13.7083642,9.81226623 13.9163037,9.60291409 14.1046826,9.53586488 L15.6062803,9.00169904 C15.7946592,8.93468607 15.9628074,8.71683958 15.9799591,8.51759372 C15.9799591,8.51759372 15.9987952,8.29793605 15.9987952,8 C15.998777,7.70202772 15.9794701,7.48131959 15.9794701,7.48131959 Z M8,11.6357979 C5.99212835,11.6357979 4.36420214,10.0078535 4.36420214,8 C4.36420214,5.99211023 5.99214646,4.36420214 8,4.36420214 C10.0078898,4.36420214 11.6357979,5.99211025 11.6357979,8 C11.6357979,10.0078535 10.0078898,11.6357979 8,11.6357979 Z" id="Shape"></path>
            <path d="M6.36388735,8 C6.36388735,8.90360007 7.09639994,9.63611266 8.00000001,9.63611266 C8.90360008,9.63611266 9.63611267,8.90360007 9.63611267,8 C9.63611267,7.09639993 8.90360008,6.36388734 8.00000001,6.36388734 C7.09639994,6.36388734 6.36388735,7.09639993 6.36388735,8 L6.36388735,8 Z" id="Shape"></path>
        </g>
    </g>
</svg>