<?xml version="1.0" encoding="UTF-8" standalone="no"?>
<svg width="8px" height="8px" viewBox="0 0 8 8" version="1.1" xmlns="http://www.w3.org/2000/svg" xmlns:xlink="http://www.w3.org/1999/xlink">
    <!-- Generator: Sketch 40.3 (33839) - http://www.bohemiancoding.com/sketch -->
    <title>删除 icon</title>
    <desc>Created with Sketch.</desc>
    <defs></defs>
    <g id="陪同版-1.0.4" stroke="none" stroke-width="1" fill="none" fill-rule="evenodd">
        <g id="译员详情-基本信息-提示弹出" transform="translate(-671.000000, -800.000000)" fill="#1DA1F2">
            <g id="基本信息" transform="translate(270.000000, 91.000000)">
                <g id="个性标签" transform="translate(32.000000, 701.000000)">
                    <g id="Group-5-Copy-2" transform="translate(233.000000, 0.000000)">
                        <g id="删除-icon" transform="translate(136.000000, 8.000000)">
                            <path d="M4.13636364,3.38471125 L1.37191268,0.620260289 C1.17610012,0.424447729 0.859731594,0.424661696 0.664469449,0.619923842 C0.474917875,0.809475415 0.469357935,1.13191911 0.664805896,1.32736707 L3.42925686,4.09181803 L0.664805896,6.85626899 C0.468993336,7.05208155 0.469207303,7.36845007 0.664469449,7.56371222 C0.854021022,7.75326379 1.17646472,7.75882373 1.37191268,7.56337577 L4.13636364,4.79892481 L6.9008146,7.56337577 C7.09662716,7.75918833 7.41299568,7.75897436 7.60825782,7.56371222 C7.7978094,7.37416064 7.80336934,7.05171695 7.60792138,6.85626899 L4.84347042,4.09181803 L7.60792138,1.32736707 C7.80373394,1.13155451 7.80351997,0.815185987 7.60825782,0.619923842 C7.41870625,0.430372268 7.09626256,0.424812328 6.9008146,0.620260289 L4.13636364,3.38471125 Z" id="Combined-Shape"></path>
                        </g>
                    </g>
                </g>
            </g>
        </g>
    </g>
</svg>