<?xml version="1.0" encoding="UTF-8" standalone="no"?>
<svg width="80px" height="80px" viewBox="0 0 80 80" version="1.1" xmlns="http://www.w3.org/2000/svg" xmlns:xlink="http://www.w3.org/1999/xlink">
    <!-- Generator: Sketch 40.3 (33839) - http://www.bohemiancoding.com/sketch -->
    <title>head_normal</title>
    <desc>Created with Sketch.</desc>
    <defs>
        <rect id="path-1" x="0" y="0" width="80" height="80" rx="8"></rect>
    </defs>
    <g id="陪同版-1.0.4" stroke="none" stroke-width="1" fill="none" fill-rule="evenodd">
        <g id="译员详情-编辑" transform="translate(-304.000000, -121.000000)">
            <g id="基本信息" transform="translate(270.000000, 91.000000)">
                <g id="Group" transform="translate(34.000000, 30.000000)">
                    <g id="head_normal">
                        <mask id="mask-2" fill="white">
                            <use xlink:href="#path-1"></use>
                        </mask>
                        <use id="Rectangle-78" fill="#CCCCCC" xlink:href="#path-1"></use>
                        <g id="头像-(3)" mask="url(#mask-2)" fill="#FFFFFF">
                            <g transform="translate(2.000000, 16.000000)" id="Shape">
                                <path d="M74.9690801,78.6501482 C73.8143332,73.2035437 71.6157325,63.9925336 71.6157325,63.9925336 C71.6157325,63.9925336 70.4410932,58.2807603 68.5805726,56.3336632 C65.3668314,52.9709793 45.4037241,50.1398959 44.618471,44.1111826 C44.4050557,42.4731786 44.3403381,39.603763 44.4008253,38.9051242 C46.0372193,37.4261314 47.358576,35.5170058 47.6765837,34.9704332 C48.0737108,34.2846921 48.8874972,32.3639315 49.509381,29.9784039 C50.5432436,29.855831 51.4805247,27.9371449 52.1701866,25.8230095 C52.9093543,23.5476984 52.3494879,21.5554143 51.3000534,21.188417 C52.0181586,18.1709036 52.6220402,13.2508488 50.8618814,9.3714463 C50.0640268,7.61195172 51.9019548,4.06996315 48.5693995,0.208689624 C45.7127308,4.50550746 37.2775604,-2.3627268 30.7746493,0.925547511 C28.0965618,2.2798028 26.9806995,4.28814123 26.5787117,6.24966923 C24.4362777,7.9775961 23.9121455,10.1721842 23.6280719,11.5184122 C22.8902544,15.0213469 22.777201,18.0993802 23.7346446,21.2971903 C22.85344,21.8737071 22.4426314,23.7364733 23.1205017,25.8230095 C23.8086334,27.9371449 24.7472647,29.8549291 25.7797771,29.9784039 C26.4016609,32.3639316 27.2169775,34.2847823 27.6141046,34.9704332 C27.9522747,35.5544361 29.4355606,37.6955393 31.2280332,39.2033039 L31.3035521,39.2033039 C31.3006718,40.3815916 31.2247028,42.8825669 31.0649338,44.1112728 C30.2796807,50.1400762 10.2096406,52.863649 7.10283226,56.3337534 C5.42638345,58.2058094 0.94250175,74.7696635 0,78.6502384 L74.9690801,78.6502384 L74.9690801,78.6501482 Z"></path>
                            </g>
                        </g>
                    </g>
                </g>
            </g>
        </g>
    </g>
</svg>